<svg width="10" height="12" viewBox="0 0 10 12" fill="none" xmlns="http://www.w3.org/2000/svg">
<path fill-rule="evenodd" clip-rule="evenodd" d="M1.62868 1.37868C2.19129 0.81607 2.95435 0.5 3.75 0.5H6C6.39397 0.5 6.78407 0.577597 7.14805 0.728361C7.51203 0.879126 7.84274 1.1001 8.12132 1.37868C8.3999 1.65726 8.62087 1.98797 8.77164 2.35195C8.9224 2.71593 9 3.10603 9 3.5C9 3.77614 8.77614 4 8.5 4C8.22386 4 8 3.77614 8 3.5C8 3.23736 7.94827 2.97728 7.84776 2.73463C7.74725 2.49198 7.59993 2.2715 7.41421 2.08579C7.2285 1.90007 7.00802 1.75275 6.76537 1.65224C6.52272 1.55173 6.26264 1.5 6 1.5H3.75C3.21957 1.5 2.71086 1.71071 2.33579 2.08579C1.96071 2.46086 1.75 2.96957 1.75 3.5C1.75 4.03043 1.96071 4.53914 2.33579 4.91421C2.71086 5.28929 3.21957 5.5 3.75 5.5H6.5C7.29565 5.5 8.05871 5.81607 8.62132 6.37868C9.18393 6.94129 9.5 7.70435 9.5 8.5C9.5 9.29565 9.18393 10.0587 8.62132 10.6213C8.05871 11.1839 7.29565 11.5 6.5 11.5H3.5C2.70435 11.5 1.94129 11.1839 1.37868 10.6213C0.81607 10.0587 0.5 9.29565 0.5 8.5C0.5 8.22386 0.723858 8 1 8C1.27614 8 1.5 8.22386 1.5 8.5C1.5 9.03043 1.71071 9.53914 2.08579 9.91421C2.46086 10.2893 2.96957 10.5 3.5 10.5H6.5C7.03043 10.5 7.53914 10.2893 7.91421 9.91421C8.28929 9.53914 8.5 9.03043 8.5 8.5C8.5 7.96957 8.28929 7.46086 7.91421 7.08579C7.53914 6.71071 7.03043 6.5 6.5 6.5H3.75C2.95435 6.5 2.19129 6.18393 1.62868 5.62132C1.06607 5.05871 0.75 4.29565 0.75 3.5C0.75 2.70435 1.06607 1.94129 1.62868 1.37868Z" fill="#FAFAFA"/>
</svg>
